<?xml version="1.0" encoding="UTF-8"?>
<svg xmlns="http://www.w3.org/2000/svg" viewBox="0 0 220 360" width="220" height="360">
  <rect x="1" y="1" width="218" height="358" rx="14" fill="#3e2723" stroke="#1b0000" stroke-width="2"/>
  <rect x="8" y="8" width="204" height="344" rx="10" fill="#f3e5ab"/>
  <rect x="14" y="14" width="192" height="332" rx="8" fill="#f3e5f5" stroke="#8e24aa" stroke-width="2"/>
  <rect x="14" y="14" width="192" height="46" rx="8" fill="#6a1b9a"/>
  <rect x="14" y="44" width="192" height="16" fill="#6a1b9a"/>
  <text x="28" y="44" font-size="22" font-weight="800" fill="#fff8e1">7</text>
  <text x="52" y="42" font-size="13" fill="#fff8e1" opacity=".9">월 홍싸리</text>
  <text x="192" y="42" text-anchor="end" font-size="13" font-weight="700" fill="#ffe082">초단</text>
  <g transform="translate(110,150)">
      <circle cx="-14" cy="-16" r="11" fill="#ab47bc"/>
      <circle cx="10" cy="-24" r="10" fill="#8e24aa"/>
      <circle cx="16" cy="0" r="11" fill="#ce93d8"/>
      <circle cx="-4" cy="8" r="9" fill="#7b1fa2"/>
      <ellipse cx="20" cy="22" rx="16" ry="10" fill="#6d4c41"/>
      <circle cx="12" cy="18" r="3" fill="#efebe9"/>
    </g>
  <path d="M40,232 Q110,210 180,232 Q110,254 40,232" fill="#2e7d32"/>
      <path d="M48,238 Q110,222 172,238" fill="none" stroke="#fff8e1" stroke-width="2" opacity=".7"/>
  <text x="110" y="312" text-anchor="middle" font-size="12" fill="#6a1b9a" font-weight="700">홍싸리</text>
  <text x="110" y="330" text-anchor="middle" font-size="11" fill="#8e24aa">초단</text>
</svg>